<?xml version="1.0" encoding="iso-8859-1"?>
<!-- Generator: Adobe Illustrator 19.0.0, SVG Export Plug-In . SVG Version: 6.00 Build 0)  -->
<svg xmlns="http://www.w3.org/2000/svg" xmlns:xlink="http://www.w3.org/1999/xlink" version="1.1" id="Capa_1" x="0px" y="0px" viewBox="0 0 58.996 58.996" style="enable-background:new 0 0 58.996 58.996;" xml:space="preserve" width="512px" height="512px">
<g>
	<g>
		<path d="M51.613,0.891C51.405,0.35,50.896,0,50.315,0H29.672c-0.67,0-1.244,0.482-1.365,1.148    c-0.077,0.426-0.571,2.087-3.661,6.034L24.53,7.324c-0.455,0.578-0.968,1.199-1.505,1.837L23.024,9.16l-0.827,0.958    c-1.208,1.399-2.586,2.912-4.095,4.497l-0.573,0.602l0.002,0.002c-1.167,1.212-2.453,2.514-3.887,3.926    c-0.195,0.166-4.772,4.164-3.893,13.44c0.042,0.447,0.08,0.883,0.113,1.31l-0.003,0.002l0.038,0.535    c0.14,1.995,0.18,3.808,0.122,5.497c-0.002,0.056-0.005,0.112-0.007,0.168c-0.02,0.533-0.049,1.057-0.089,1.567    c-0.24,3.038-1.06,6.582-1.719,9.429c-0.494,2.133-0.883,3.817-0.915,4.781c-0.028,0.877,0.306,2.43,2.864,2.97    c0.485,0.103,0.976,0.152,1.465,0.152c0.944,0,1.88-0.193,2.764-0.547c1.031-0.326,2.256-0.994,3.47-2.679    c0.008-0.011,0.018-0.02,0.026-0.031c1.343-1.819,3.168-4.981,4.91-10.2c0.001-0.001,0.001-0.003,0.002-0.005    c0.213-0.639,0.425-1.309,0.635-2.012c0.031-0.103,0.061-0.208,0.091-0.311c0.188-0.64,0.375-1.301,0.558-1.995    c0.006-0.024,0.013-0.046,0.02-0.07c1.248-4.735,5.478-8.128,10.373-8.251c1.542-0.034,2.979-0.488,4.152-1.269    c0.524-0.349,1-0.755,1.401-1.231c0.201-0.238,0.394-0.502,0.573-0.788c0.012-0.019,0.024-0.038,0.035-0.057    c0.48-0.783,0.841-1.74,0.867-2.875c0.02-0.878-0.16-1.861-0.638-2.947c-0.191-0.434-0.43-0.885-0.723-1.353    c-0.166-0.265-0.322-0.529-0.472-0.791c-0.036-0.064-0.071-0.129-0.107-0.194c-0.115-0.206-0.226-0.412-0.329-0.615    c-0.032-0.063-0.062-0.126-0.094-0.189c-0.103-0.208-0.201-0.414-0.292-0.618c-0.026-0.059-0.051-0.118-0.076-0.177    c-0.088-0.204-0.17-0.407-0.246-0.607c-0.738-1.951-0.997-3.995-0.156-5.785l0.027-0.056c0.235-0.483,0.551-0.941,0.94-1.361    l0.104-0.107c0.037-0.038,0.078-0.076,0.117-0.114c0.076-0.074,0.155-0.148,0.237-0.22c0.065-0.058,0.127-0.114,0.204-0.179    l0.107-0.091c0.229-0.182,0.466-0.355,0.722-0.518c0.167-0.105,0.343-0.221,0.526-0.344c0.112-0.075,0.229-0.155,0.345-0.235    c0.028-0.02,0.054-0.036,0.083-0.056c0.011-0.008,0.023-0.017,0.034-0.025c0.308-0.214,0.625-0.439,0.955-0.682l0.03-0.02    c0.065-0.048,0.135-0.102,0.201-0.151c0.219-0.162,0.44-0.328,0.664-0.5c0.144-0.11,0.289-0.221,0.434-0.334    c0.165-0.128,0.33-0.257,0.497-0.388c0.101-0.079,0.2-0.155,0.301-0.235L47.147,6h-0.061c1.765-1.467,3.336-2.843,4.162-3.587    C51.677,2.026,51.82,1.429,51.613,0.891z M20.227,15.279c0.452-0.48,0.88-0.942,1.292-1.392c0.016-0.017,0.031-0.034,0.047-0.051    c0.461-0.504,0.899-0.989,1.313-1.456l6.519,9.034c-1.203,0.569-2.406,1.184-3.606,1.839l-5.671-7.859    C20.158,15.354,20.191,15.317,20.227,15.279z M36.292,18.76c-1.643,0.467-3.328,1.082-5.033,1.814l-4.81-6.666h9.636    C35.729,15.37,35.796,17,36.292,18.76z M14.992,20.621c1.363-1.341,2.593-2.586,3.725-3.757l5.32,7.373    c-4.416,2.548-8.679,5.506-12.289,8.222c-0.002-0.021-0.003-0.04-0.005-0.061C10.967,24.225,14.779,20.809,14.992,20.621z     M39.276,27.773c-0.068,0.192-0.159,0.378-0.26,0.563c-0.022,0.04-0.036,0.082-0.06,0.122c-0.13,0.222-0.283,0.438-0.461,0.648    c-0.93,1.103-2.413,1.755-4.161,1.793c-0.005,0-0.009,0.001-0.013,0.001l-0.184,0.005c-5.592,0.175-10.508,4.146-11.954,9.658    c-0.018,0.069-0.037,0.133-0.055,0.202c-0.168,0.635-0.342,1.253-0.52,1.859c-0.029,0.098-0.057,0.198-0.086,0.295    c-1.452,4.862-3.215,8.772-5.254,11.639c-0.171,0.231-0.355,0.448-0.55,0.649c-0.578,0.595-1.258,1.052-1.985,1.358    c-0.075,0.023-0.149,0.046-0.223,0.065c1.668-2.771,3.788-7.343,5.699-14.628c1.929-7.354,8.602-12.855,15.862-13.082l0.37-0.011    c1.255-0.028,2.653-0.188,3.628-1.118l0.215-0.044C39.28,27.755,39.279,27.765,39.276,27.773z M38.443,23.439    c0.173,0.276,0.325,0.547,0.456,0.813c0.243,0.495,0.405,0.97,0.499,1.429l-0.963,0.196c-0.261,0.055-0.493,0.188-0.676,0.391    c-0.375,0.421-1.082,0.612-2.37,0.641l-0.379,0.012c-8.26,0.258-15.554,6.251-17.737,14.573    c-2.199,8.382-4.641,12.991-6.304,15.384c-0.013,0.019-0.017,0.041-0.029,0.061c-0.124-0.017-0.249-0.023-0.372-0.049    c-1.301-0.274-1.285-0.764-1.279-0.948c0.025-0.768,0.414-2.448,0.864-4.395c0.674-2.912,1.512-6.535,1.764-9.722    c0.039-0.494,0.066-0.997,0.088-1.506c0.003-0.075,0.006-0.151,0.009-0.227c0.062-1.641,0.036-3.369-0.083-5.264    c3.53-2.699,8.781-6.454,14.332-9.538c0.799-0.443,1.592-0.87,2.369-1.265c0.087-0.044,0.173-0.085,0.26-0.129    c0.767-0.385,1.519-0.746,2.255-1.079c0.214-0.097,0.429-0.2,0.643-0.294l0.102-0.046c1.716-0.747,3.416-1.377,5.059-1.838    c0.041,0.094,0.095,0.19,0.137,0.284c0.114,0.251,0.239,0.505,0.368,0.761c0.08,0.157,0.155,0.312,0.24,0.47    C37.927,22.579,38.172,23.006,38.443,23.439z M40.655,8.463c-0.24,0.167-0.468,0.317-0.69,0.461    c-0.068,0.044-0.143,0.097-0.209,0.139c-0.015,0.009-0.027,0.02-0.041,0.03c-0.354,0.226-0.677,0.468-0.983,0.719l-0.076,0.063    c-0.029,0.024-0.057,0.051-0.086,0.076c-0.211,0.182-0.412,0.369-0.598,0.564c-0.003,0.003-0.005,0.005-0.008,0.008l-0.098,0.102    c-0.013,0.015-0.024,0.03-0.038,0.045c-0.161,0.176-0.313,0.357-0.454,0.542c-0.025,0.033-0.049,0.067-0.074,0.101    c-0.137,0.186-0.267,0.375-0.384,0.57c-0.005,0.009-0.012,0.017-0.018,0.026H25.006l-0.773-1.072    c0.679-0.797,1.304-1.557,1.858-2.26L26.559,8h14.744C41.087,8.158,40.873,8.311,40.655,8.463z M43.921,6h-15.94    c1.34-1.96,1.929-3.23,2.169-4h18.548C47.437,3.102,45.676,4.599,43.921,6z" fill="#F85A16"/>
	</g>
</g>
<g>
</g>
<g>
</g>
<g>
</g>
<g>
</g>
<g>
</g>
<g>
</g>
<g>
</g>
<g>
</g>
<g>
</g>
<g>
</g>
<g>
</g>
<g>
</g>
<g>
</g>
<g>
</g>
<g>
</g>
</svg>
