<?xml version="1.0" encoding="iso-8859-1"?>
<!-- Generator: Adobe Illustrator 19.1.0, SVG Export Plug-In . SVG Version: 6.00 Build 0)  -->
<svg xmlns="http://www.w3.org/2000/svg" xmlns:xlink="http://www.w3.org/1999/xlink" version="1.1" id="Capa_1" x="0px" y="0px" viewBox="0 0 70.529 70.529" style="enable-background:new 0 0 70.529 70.529;" xml:space="preserve" width="512px" height="512px">
<path d="M66.421,29.17h-1.607v-4.652c0-2.343-1.907-4.25-4.25-4.25h-2.861v-1.557c0-2.343-1.907-4.25-4.25-4.25h-3.155  c-2.343,0-4.25,1.907-4.25,4.25v10.442H24.48V18.711c0-2.343-1.907-4.25-4.25-4.25h-3.155c-2.343,0-4.25,1.907-4.25,4.25v2.894  h-2.86c-2.343,0-4.25,1.907-4.25,4.25v3.883H4.107C1.843,29.737,0,31.644,0,33.987v3.122c0,2.343,1.843,4.25,4.107,4.25h1.607v4.652  c0,2.343,1.907,4.25,4.25,4.25h2.86v1.557c0,2.343,1.907,4.25,4.25,4.25h3.155c2.343,0,4.25-1.907,4.25-4.25v-11.01h21.568v11.01  c0,2.343,1.907,4.25,4.25,4.25h3.155c2.343,0,4.25-1.907,4.25-4.25v-2.894h2.861c2.343,0,4.25-1.907,4.25-4.25v-3.882h1.607  c2.265,0,4.107-1.907,4.107-4.25V33.42C70.529,31.077,68.686,29.17,66.421,29.17z M4.107,38.859c-0.886,0-1.607-0.785-1.607-1.75  v-3.122c0-0.965,0.721-1.75,1.607-1.75h1.607v6.622H4.107z M9.965,47.761c-0.965,0-1.75-0.785-1.75-1.75V25.854  c0-0.965,0.785-1.75,1.75-1.75h2.86v23.656H9.965z M21.98,51.818c0,0.965-0.785,1.75-1.75,1.75h-3.155  c-0.965,0-1.75-0.785-1.75-1.75V18.711c0-0.965,0.785-1.75,1.75-1.75h3.155c0.965,0,1.75,0.785,1.75,1.75V51.818z M24.48,38.308  v-6.655h21.568v6.655H24.48z M55.203,51.818c0,0.965-0.785,1.75-1.75,1.75h-3.155c-0.965,0-1.75-0.785-1.75-1.75V18.711  c0-0.965,0.785-1.75,1.75-1.75h3.155c0.965,0,1.75,0.785,1.75,1.75V51.818z M62.314,44.674c0,0.965-0.785,1.75-1.75,1.75h-2.861  V22.768h2.861c0.965,0,1.75,0.785,1.75,1.75V44.674z M68.029,36.542c0,0.965-0.721,1.75-1.607,1.75h-1.607V31.67h1.607  c0.886,0,1.607,0.785,1.607,1.75V36.542z" fill="#F85A16"/>
<g>
</g>
<g>
</g>
<g>
</g>
<g>
</g>
<g>
</g>
<g>
</g>
<g>
</g>
<g>
</g>
<g>
</g>
<g>
</g>
<g>
</g>
<g>
</g>
<g>
</g>
<g>
</g>
<g>
</g>
</svg>
