<?xml version="1.0" encoding="iso-8859-1"?>
<!-- Generator: Adobe Illustrator 18.0.0, SVG Export Plug-In . SVG Version: 6.00 Build 0)  -->
<!DOCTYPE svg PUBLIC "-//W3C//DTD SVG 1.1//EN" "http://www.w3.org/Graphics/SVG/1.1/DTD/svg11.dtd">
<svg xmlns="http://www.w3.org/2000/svg" xmlns:xlink="http://www.w3.org/1999/xlink" version="1.1" id="Capa_1" x="0px" y="0px" viewBox="0 0 356.603 356.603" style="enable-background:new 0 0 356.603 356.603;" xml:space="preserve" width="512px" height="512px">
<path d="M356.6,153.891c-0.501-17.863-9.598-31.177-25.734-37.869c-9.497-47.639-42.398-73.809-93.023-73.809  c-23.973,0-43.964,5.819-59.542,17.275c-15.415-11.303-35.436-17.279-59.547-17.279c-50.619,0-83.519,26.171-93.018,73.811  C9.595,122.714,0.497,136.029,0,153.891c0,0-0.002,3.522,0.028,4.169c1.234,27.983,15.887,53.71,40.2,70.584  c7.05,4.893,15.296,9.08,24.563,12.476v51.619c0,11.938,9.712,21.65,21.651,21.65h64.189c11.938,0,21.65-9.712,21.65-21.65v-55.265  c2.088-1.254,4.093-2.603,6.032-4.023c1.935,1.421,3.936,2.77,6.01,4.02v55.264c0,11.943,9.712,21.66,21.65,21.66h64.19  c11.938,0,21.65-9.716,21.65-21.66v-51.617c9.261-3.395,17.505-7.581,24.556-12.474c24.319-16.878,38.974-42.604,40.21-70.657  c0.021-0.646,0.023-3.913,0.023-3.913L356.6,153.891z M124.361,244.905h-10.333v-15.167c0-2.849,2.318-5.167,5.167-5.167  c2.849,0,5.167,2.318,5.167,5.167V244.905z M124.361,257.905v11h-10.333v-11H124.361z M124.361,281.905v19.484h-10.333v-19.484  H124.361z M162.706,227.968l-3.424,1.839v62.932c0,4.778-3.873,8.65-8.65,8.65h-13.269v-19.484h7.227c3.559,0,6.663-2.743,6.77-6.3  c0.11-3.681-2.841-6.7-6.497-6.7h-7.5v-11h7.227c3.559,0,6.663-2.743,6.77-6.3c0.11-3.681-2.841-6.7-6.497-6.7h-7.5v-14.72  c0-9.838-7.635-18.228-17.466-18.6c-10.335-0.391-18.868,7.903-18.868,18.153v15.167l-7.227,0c-3.559,0-6.663,2.743-6.77,6.3  c-0.11,3.681,2.841,6.7,6.497,6.7h7.5v11H93.8c-3.559,0-6.663,2.743-6.77,6.3c-0.11,3.681,2.841,6.7,6.497,6.7h7.5v19.484H86.442  c-4.778,0-8.651-3.873-8.651-8.651v-60.952l-4.475-1.467c-9.906-3.249-18.545-7.405-25.676-12.354  c-20.951-14.54-33.571-36.583-34.625-60.479c-0.013-0.338-0.019-1.967-0.018-3.316c0.385-12.931,6.601-21.826,18.492-26.452  c4.446-1.73,12.702-2.477,17.339-2.477c16.373,0,35.89,4.702,35.89,27.1s-19.517,27.1-35.89,27.1c-2.324,0-4.616-0.102-6.816-0.302  c-3.715-0.339-7.175,2.497-7.31,6.225c-0.123,3.415,2.44,6.374,5.886,6.699c2.667,0.251,5.439,0.379,8.24,0.379  c18.346,0,32.254-5.389,40.461-15.107c1.405,0.243,9.482,1.55,20.424,1.55c15.515,0,36.755-2.634,52.768-14.676  c1.22-0.917,2.375-1.886,3.495-2.882l11.529,9.992c1.229,1.065,2.745,1.588,4.254,1.588c1.884,0,3.757-0.814,5.049-2.403  c2.244-2.758,1.693-6.858-0.993-9.187l-11.248-9.748c5.245-7.743,8.475-17.005,9.63-27.708c0.384-3.556-2.058-6.948-5.605-7.402  c-3.634-0.465-6.917,2.15-7.294,5.772c-1.452,13.917-6.881,24.241-16.596,31.562c-18.629,14.038-47.705,12.516-58.796,11.311  c1.193-3.895,1.814-8.156,1.814-12.762c0-25.109-18.277-40.1-48.89-40.1c-3.125,0-6.124,0.16-8.996,0.461  c9.648-37.657,36.749-57.492,78.921-57.492c27.188,0,48.118,8.155,62.209,24.239c13.696,15.633,20.64,38.182,20.64,67.02  C201.603,174.117,194.855,210.699,162.706,227.968z M343.589,157.487c-1.053,23.889-13.676,45.932-34.632,60.476  c-7.125,4.944-15.752,9.096-25.639,12.343c-1.13,0.33-11.319,3.221-25.816,4.724c-3.571,0.37-6.166,3.565-5.795,7.135  c0.347,3.343,3.168,5.831,6.458,5.831c0.224,0,0.45-0.012,0.678-0.035c8.171-0.847,15.037-2.092,19.97-3.158v47.931  c0,4.775-3.88,8.66-8.65,8.66h-64.19c-4.77,0-8.65-3.885-8.65-8.66V242.87c6.763,2.095,13.89,3.67,21.307,4.675  c0.296,0.041,0.59,0.06,0.881,0.06c3.202,0,5.991-2.367,6.433-5.628c0.482-3.557-2.01-6.832-5.568-7.314  c-9.557-1.295-18.556-3.606-26.763-6.86c-1.795-0.977-3.536-2.032-5.22-3.157c17.227-17.922,26.21-44.475,26.21-78.178  c0-33.892-9.161-60.368-26.244-78.169c12.991-8.682,29.591-13.086,49.484-13.086c45.36,0,73.296,22.932,80.82,66.314  c1.024,7.896,1.736,24.192-7.419,35.012c-2.319,2.74-1.977,6.842,0.763,9.161c1.221,1.033,2.712,1.538,4.195,1.538  c1.846,0,3.68-0.782,4.965-2.301c8.665-10.24,10.895-23.218,10.963-33.531c7.313,5.065,11.17,12.681,11.473,22.764  C343.603,154.675,343.603,157.016,343.589,157.487z" fill="#F85A16"/>
<g>
</g>
<g>
</g>
<g>
</g>
<g>
</g>
<g>
</g>
<g>
</g>
<g>
</g>
<g>
</g>
<g>
</g>
<g>
</g>
<g>
</g>
<g>
</g>
<g>
</g>
<g>
</g>
<g>
</g>
</svg>
