<?xml version="1.0" encoding="iso-8859-1"?>
<!-- Generator: Adobe Illustrator 18.0.0, SVG Export Plug-In . SVG Version: 6.00 Build 0)  -->
<!DOCTYPE svg PUBLIC "-//W3C//DTD SVG 1.1//EN" "http://www.w3.org/Graphics/SVG/1.1/DTD/svg11.dtd">
<svg xmlns="http://www.w3.org/2000/svg" xmlns:xlink="http://www.w3.org/1999/xlink" version="1.1" id="Capa_1" x="0px" y="0px" viewBox="0 0 487.258 487.258" style="enable-background:new 0 0 487.258 487.258;" xml:space="preserve" width="512px" height="512px">
<g>
	<path d="M483.008,131.311H149.554v-7.476c0-41.233-33.544-74.778-74.775-74.779c-41.232,0-74.777,33.546-74.777,74.779L0,363.369   c0,0.009,0.001,0.019,0.001,0.027c0,0.009-0.001,0.018-0.001,0.027c0,41.233,33.546,74.779,74.778,74.779h408.229   c2.348,0,4.25-1.902,4.25-4.25V135.561C487.258,133.213,485.355,131.311,483.008,131.311z M8.501,123.834   c0-36.547,29.731-66.279,66.277-66.279c36.544,0.001,66.275,29.733,66.275,66.279V328.86   c-12.502-23.874-37.509-40.212-66.275-40.212S21.002,304.986,8.5,328.86L8.501,123.834z M74.777,429.647   c-36.537,0-66.262-29.718-66.276-66.251c0.015-36.531,29.74-66.248,66.277-66.248c36.535,0,66.26,29.717,66.274,66.248   C141.038,399.93,111.313,429.647,74.777,429.647z M478.758,429.703H109.341c23.875-12.502,40.213-37.512,40.213-66.279   c0-0.009-0.001-0.019-0.001-0.027c0-0.009,0.001-0.019,0.001-0.027V190.232h257.083c2.348,0,4.25-1.902,4.25-4.25   s-1.902-4.25-4.25-4.25H149.554v-41.922h329.204V429.703z" fill="#F85A16"/>
	<path d="M74.778,312.162c-28.268,0-51.265,22.996-51.265,51.262c0,28.267,22.997,51.264,51.265,51.264   c28.266,0,51.262-22.997,51.262-51.264C126.04,335.158,103.044,312.162,74.778,312.162z M74.778,406.188   c-23.58,0-42.765-19.184-42.765-42.764c0-23.579,19.185-42.762,42.765-42.762c23.579,0,42.762,19.183,42.762,42.762   C117.54,387.004,98.357,406.188,74.778,406.188z" fill="#F85A16"/>
	<path d="M74.778,336.077c-15.08,0-27.349,12.268-27.349,27.347c0,15.081,12.269,27.35,27.349,27.35   c15.079,0,27.347-12.268,27.347-27.35C102.125,348.345,89.857,336.077,74.778,336.077z M74.778,382.273   c-10.394,0-18.849-8.456-18.849-18.85c0-10.393,8.455-18.847,18.849-18.847c10.393,0,18.847,8.454,18.847,18.847   C93.625,373.817,85.171,382.273,74.778,382.273z" fill="#F85A16"/>
	<path d="M359.409,403.365h4.328c20.947,0,40.641-8.154,55.444-22.958c18.555-18.554,26.574-45.019,21.452-70.792   c-0.336-1.687-1.653-3.005-3.34-3.34c-5.037-1.002-10.2-1.51-15.344-1.51c-9.632,0-19.321,1.817-28.3,5.274   c-5.67-15.223-16.017-28.525-29.957-37.843c-1.428-0.955-3.295-0.955-4.723,0c-13.891,9.284-24.215,22.525-29.898,37.68   c-8.898-3.387-18.253-5.111-27.879-5.111c-5.142,0-10.302,0.507-15.336,1.507c-1.687,0.336-3.005,1.654-3.341,3.341   c-5.122,25.774,2.898,52.24,21.454,70.797c14.801,14.803,34.489,22.955,55.438,22.955   C359.409,403.365,359.409,403.365,359.409,403.365 M361.332,280.913c12.406,9.044,21.337,21.746,25.712,36.087   c0.228,0.75,0.442,1.503,0.645,2.259c0.061,0.228,0.117,0.456,0.176,0.684c0.142,0.546,0.276,1.095,0.404,1.643   c0.061,0.261,0.119,0.523,0.177,0.784c0.121,0.552,0.234,1.105,0.343,1.659c0.045,0.23,0.092,0.46,0.135,0.69   c0.144,0.779,0.277,1.56,0.394,2.344c0.004,0.021,0.006,0.043,0.009,0.064c0.113,0.76,0.21,1.522,0.298,2.286   c0.028,0.244,0.052,0.49,0.077,0.734c0.058,0.552,0.109,1.104,0.153,1.656c0.022,0.276,0.043,0.553,0.061,0.828   c0.038,0.555,0.068,1.109,0.093,1.664c0.011,0.248,0.024,0.495,0.033,0.743c0.027,0.794,0.044,1.589,0.044,2.386   c0,0.716-0.012,1.43-0.033,2.143c-0.007,0.234-0.021,0.467-0.031,0.7c-0.02,0.479-0.038,0.959-0.067,1.437   c-0.016,0.268-0.04,0.533-0.059,0.8c-0.032,0.442-0.063,0.885-0.103,1.325c-0.025,0.28-0.059,0.56-0.088,0.84   c-0.044,0.425-0.086,0.85-0.139,1.273c-0.034,0.284-0.076,0.568-0.114,0.853c-0.056,0.416-0.111,0.832-0.175,1.246   c-0.043,0.286-0.094,0.57-0.141,0.855c-0.068,0.41-0.136,0.821-0.211,1.229c-0.053,0.283-0.109,0.564-0.165,0.847   c-0.081,0.409-0.162,0.819-0.25,1.227c-0.059,0.276-0.124,0.552-0.186,0.827c-0.094,0.41-0.189,0.82-0.29,1.229   c-0.066,0.27-0.137,0.538-0.207,0.807c-0.106,0.411-0.216,0.821-0.33,1.23c-0.073,0.264-0.151,0.527-0.228,0.791   c-0.121,0.409-0.243,0.818-0.37,1.225c-0.081,0.258-0.163,0.514-0.247,0.771c-0.134,0.41-0.27,0.819-0.411,1.227   c-0.087,0.251-0.175,0.501-0.265,0.75c-0.147,0.41-0.298,0.819-0.453,1.227c-0.092,0.242-0.186,0.485-0.281,0.726   c-0.161,0.41-0.326,0.818-0.495,1.226c-0.098,0.235-0.196,0.471-0.296,0.705c-0.176,0.41-0.357,0.819-0.54,1.226   c-0.103,0.227-0.204,0.452-0.309,0.677c-0.19,0.412-0.388,0.821-0.586,1.229c-0.107,0.217-0.211,0.434-0.319,0.65   c-0.206,0.412-0.418,0.821-0.633,1.229c-0.109,0.207-0.217,0.415-0.328,0.622c-0.223,0.413-0.451,0.822-0.683,1.23   c-0.111,0.197-0.221,0.396-0.334,0.591c-0.24,0.416-0.487,0.828-0.737,1.24c-0.111,0.184-0.221,0.368-0.334,0.551   c-0.26,0.422-0.528,0.839-0.798,1.255c-0.108,0.168-0.216,0.338-0.326,0.505c-0.284,0.43-0.575,0.854-0.868,1.277   c-0.104,0.15-0.205,0.302-0.31,0.451c-0.315,0.445-0.637,0.886-0.961,1.324c-0.091,0.123-0.178,0.246-0.27,0.368   c-0.363,0.484-0.735,0.963-1.111,1.439c-0.058,0.071-0.112,0.146-0.17,0.218c-1.322,1.656-2.723,3.257-4.199,4.795   c-0.032,0.033-0.065,0.065-0.098,0.099c-0.452,0.47-0.911,0.934-1.377,1.392c-0.136,0.133-0.275,0.262-0.412,0.393   c-0.368,0.355-0.736,0.71-1.113,1.058c-0.182,0.167-0.367,0.331-0.551,0.496c-0.338,0.306-0.676,0.612-1.02,0.911   c-0.212,0.186-0.43,0.365-0.645,0.548c-0.322,0.273-0.643,0.548-0.972,0.816c-0.237,0.194-0.479,0.384-0.72,0.575   c-0.313,0.249-0.624,0.498-0.941,0.742c-0.257,0.198-0.519,0.392-0.779,0.586c-0.224,0.167-0.448,0.333-0.673,0.498   c-0.2-0.146-0.398-0.293-0.597-0.44c-0.29-0.217-0.581-0.432-0.867-0.652c-0.289-0.223-0.574-0.45-0.859-0.677   c-0.267-0.212-0.535-0.423-0.798-0.638c-0.304-0.248-0.601-0.502-0.899-0.755c-0.237-0.2-0.477-0.399-0.711-0.604   c-0.323-0.281-0.641-0.569-0.958-0.855c-0.204-0.184-0.41-0.364-0.611-0.55c-0.357-0.331-0.709-0.669-1.06-1.007   c-0.153-0.148-0.31-0.292-0.461-0.44c-0.432-0.424-0.855-0.854-1.274-1.287c-0.066-0.068-0.136-0.136-0.201-0.204   c-1.477-1.538-2.878-3.139-4.2-4.795c-0.042-0.052-0.081-0.104-0.122-0.157c-0.395-0.495-0.782-0.995-1.161-1.501   c-0.079-0.105-0.154-0.212-0.232-0.317c-0.338-0.455-0.673-0.914-1-1.378c-0.095-0.134-0.186-0.271-0.28-0.406   c-0.303-0.437-0.603-0.876-0.896-1.319c-0.105-0.159-0.207-0.32-0.312-0.48c-0.274-0.424-0.548-0.85-0.813-1.278   c-0.109-0.178-0.216-0.357-0.324-0.535c-0.252-0.417-0.503-0.835-0.747-1.257c-0.11-0.19-0.217-0.383-0.324-0.574   c-0.234-0.414-0.466-0.829-0.692-1.248c-0.109-0.203-0.215-0.407-0.322-0.611c-0.217-0.41-0.43-0.822-0.638-1.237   c-0.107-0.215-0.213-0.433-0.318-0.648c-0.198-0.407-0.395-0.815-0.585-1.227c-0.105-0.227-0.209-0.454-0.312-0.683   c-0.183-0.405-0.362-0.813-0.538-1.222c-0.1-0.235-0.199-0.472-0.298-0.708c-0.168-0.406-0.333-0.813-0.494-1.222   c-0.096-0.243-0.189-0.487-0.282-0.732c-0.154-0.405-0.305-0.812-0.451-1.22c-0.091-0.252-0.18-0.504-0.268-0.758   c-0.141-0.404-0.275-0.811-0.408-1.219c-0.084-0.259-0.168-0.518-0.249-0.776c-0.128-0.406-0.249-0.815-0.369-1.224   c-0.077-0.265-0.155-0.529-0.229-0.795c-0.113-0.406-0.222-0.814-0.328-1.223c-0.07-0.271-0.142-0.542-0.209-0.814   c-0.101-0.407-0.195-0.815-0.289-1.224c-0.063-0.277-0.127-0.554-0.188-0.832c-0.088-0.406-0.168-0.814-0.249-1.223   c-0.056-0.283-0.113-0.566-0.166-0.851c-0.074-0.406-0.142-0.815-0.21-1.224c-0.048-0.287-0.098-0.574-0.142-0.862   c-0.063-0.411-0.118-0.825-0.174-1.239c-0.039-0.286-0.081-0.572-0.116-0.859c-0.051-0.422-0.094-0.845-0.138-1.268   c-0.029-0.281-0.063-0.563-0.088-0.846c-0.04-0.438-0.07-0.877-0.103-1.315c-0.02-0.271-0.044-0.539-0.061-0.81   c-0.029-0.48-0.047-0.964-0.066-1.446c-0.01-0.229-0.024-0.458-0.031-0.689c-0.021-0.713-0.033-1.428-0.033-2.145   c0-0.801,0.018-1.6,0.045-2.398c0.008-0.255,0.022-0.51,0.034-0.764c0.024-0.552,0.055-1.103,0.093-1.653   c0.02-0.286,0.04-0.572,0.064-0.857c0.044-0.544,0.096-1.088,0.152-1.631c0.027-0.26,0.052-0.52,0.081-0.778   c0.09-0.773,0.189-1.546,0.305-2.315c0.022-0.143,0.048-0.284,0.07-0.426c0.1-0.64,0.207-1.278,0.325-1.915   c0.052-0.283,0.109-0.565,0.165-0.846c0.1-0.51,0.206-1.018,0.317-1.524c0.064-0.287,0.128-0.574,0.194-0.859   c0.13-0.556,0.269-1.108,0.412-1.66c0.056-0.216,0.108-0.433,0.166-0.647c0.205-0.757,0.422-1.511,0.652-2.262   C340.042,302.595,348.957,289.934,361.332,280.913z M309.98,374.4c-15.863-15.865-23.09-38.218-19.631-60.293   c3.582-0.56,7.218-0.842,10.844-0.842c8.751,0,17.253,1.588,25.322,4.724c-0.01,0.036-0.017,0.073-0.026,0.109   c-0.112,0.443-0.214,0.89-0.318,1.335c-0.081,0.344-0.167,0.686-0.243,1.031c-0.096,0.431-0.18,0.865-0.268,1.299   c-0.074,0.361-0.152,0.723-0.221,1.085c-0.078,0.412-0.145,0.827-0.216,1.241c-0.066,0.387-0.138,0.772-0.199,1.158   c-0.062,0.398-0.112,0.799-0.169,1.199c-0.057,0.404-0.119,0.807-0.17,1.213c-0.051,0.399-0.088,0.803-0.133,1.203   c-0.044,0.407-0.094,0.813-0.133,1.221c-0.04,0.436-0.068,0.873-0.102,1.31c-0.029,0.375-0.064,0.749-0.088,1.125   c-0.033,0.541-0.053,1.084-0.076,1.627c-0.011,0.273-0.029,0.547-0.038,0.821c-0.025,0.817-0.038,1.638-0.038,2.459   c0,1.211,0.037,2.416,0.092,3.618c0.012,0.232,0.02,0.465,0.033,0.697c0.063,1.161,0.151,2.318,0.266,3.47   c0.02,0.211,0.046,0.421,0.068,0.632c0.122,1.133,0.264,2.261,0.434,3.383c0.011,0.074,0.02,0.149,0.031,0.224   c0.181,1.168,0.395,2.328,0.627,3.483c0.044,0.222,0.088,0.443,0.135,0.665c0.239,1.136,0.5,2.266,0.787,3.386   c0.042,0.162,0.088,0.321,0.13,0.483c0.286,1.083,0.593,2.159,0.925,3.227c0.033,0.108,0.064,0.217,0.098,0.325   c0.352,1.117,0.734,2.224,1.135,3.322c0.073,0.2,0.147,0.399,0.222,0.599c0.41,1.096,0.841,2.184,1.299,3.259   c0.044,0.104,0.092,0.205,0.136,0.308c0.448,1.039,0.92,2.066,1.412,3.083c0.061,0.127,0.12,0.255,0.182,0.381   c0.514,1.047,1.054,2.081,1.614,3.103c0.098,0.179,0.196,0.355,0.296,0.533c0.576,1.034,1.171,2.058,1.794,3.065   c0.027,0.045,0.057,0.088,0.085,0.133c0.61,0.983,1.247,1.95,1.902,2.905c0.097,0.143,0.191,0.285,0.289,0.426   c0.662,0.953,1.348,1.893,2.053,2.816c0.123,0.16,0.247,0.319,0.371,0.479c1.457,1.881,3.004,3.699,4.635,5.448   c0.144,0.153,0.286,0.309,0.431,0.461c0.793,0.837,1.605,1.657,2.438,2.462c0.059,0.056,0.112,0.115,0.171,0.172   C333.763,391.659,320.49,384.91,309.98,374.4z M432.801,314.108c3.46,22.076-3.766,44.425-19.629,60.289   c-10.652,10.651-24.141,17.44-38.768,19.665c0.069-0.066,0.133-0.137,0.202-0.203c0.83-0.8,1.642-1.615,2.433-2.447   c0.143-0.151,0.283-0.305,0.425-0.457c0.778-0.832,1.542-1.678,2.282-2.541c0.042-0.049,0.086-0.096,0.128-0.146   c0.765-0.897,1.501-1.813,2.224-2.742c0.136-0.175,0.273-0.35,0.407-0.526c0.701-0.918,1.384-1.85,2.043-2.795   c0.098-0.142,0.192-0.285,0.29-0.427c0.635-0.925,1.251-1.86,1.845-2.811c0.054-0.087,0.111-0.173,0.165-0.26   c0.616-0.994,1.205-2.004,1.775-3.024c0.105-0.189,0.211-0.378,0.314-0.568c0.56-1.019,1.1-2.049,1.612-3.092   c0.06-0.121,0.115-0.244,0.175-0.365c0.487-1.005,0.953-2.021,1.398-3.047c0.055-0.127,0.113-0.254,0.168-0.383   c0.456-1.067,0.885-2.148,1.293-3.236c0.077-0.205,0.152-0.41,0.228-0.615c0.402-1.099,0.785-2.205,1.138-3.322   c0.031-0.1,0.059-0.2,0.09-0.299c0.334-1.071,0.642-2.15,0.93-3.236c0.045-0.171,0.093-0.341,0.137-0.512   c0.288-1.119,0.549-2.248,0.788-3.383c0.047-0.222,0.091-0.444,0.136-0.666c0.233-1.158,0.448-2.321,0.63-3.493   c0.01-0.065,0.018-0.132,0.027-0.197c0.172-1.13,0.314-2.268,0.438-3.409c0.022-0.213,0.048-0.424,0.069-0.637   c0.114-1.153,0.203-2.313,0.267-3.477c0.013-0.23,0.022-0.462,0.032-0.692c0.056-1.206,0.093-2.414,0.093-3.628   c0-0.816-0.013-1.631-0.038-2.445c-0.012-0.39-0.036-0.777-0.054-1.166c-0.02-0.424-0.033-0.848-0.06-1.271   c-0.034-0.561-0.083-1.12-0.13-1.68c-0.021-0.247-0.034-0.495-0.058-0.743c-0.377-4.06-1.068-8.055-2.055-11.955   C407.709,313.623,420.543,312.194,432.801,314.108z" fill="#F85A16"/>
	<path d="M429.983,190.232h29.012c2.348,0,4.25-1.902,4.25-4.25s-1.902-4.25-4.25-4.25h-29.012c-2.348,0-4.25,1.902-4.25,4.25   S427.635,190.232,429.983,190.232z" fill="#F85A16"/>
	<path d="M37.551,245.71c2.348,0,4.25-1.902,4.25-4.25V83.11c0-2.348-1.902-4.25-4.25-4.25c-2.348,0-4.25,1.902-4.25,4.25v158.35   C33.301,243.808,35.203,245.71,37.551,245.71z" fill="#F85A16"/>
</g>
<g>
</g>
<g>
</g>
<g>
</g>
<g>
</g>
<g>
</g>
<g>
</g>
<g>
</g>
<g>
</g>
<g>
</g>
<g>
</g>
<g>
</g>
<g>
</g>
<g>
</g>
<g>
</g>
<g>
</g>
</svg>
